External Loads File
version=1
nRows=77
nColumns=13
Range=5.000000e-03-10 seconds
endheader
time 	forceRightX 	forceRightY 	forceRightZ 	pointRightX 	pointRightY 	pointRightZ 	forceLeftX 	forceLeftY 	forceLeftZ 	pointLeftX 	pointLeftY 	pointLeftZ 		
5.005000 -41.498442 -32.907600 -0.000000 0.188349 0.445757 -0.112244 27.795993 751.173714 -0.000000 0.363760 0.177222 -0.360599
5.010000 -47.510858 -24.154468 -0.000000 0.195480 0.453107 -0.112432 51.319180 708.673163 -0.000000 0.356536 0.170377 -0.360588
5.015000 -53.206661 -12.908768 -0.000000 0.203253 0.459927 -0.112484 73.977426 662.027813 -0.000000 0.348842 0.164040 -0.360635
5.020000 -58.182436 0.476421 -0.000000 0.211066 0.465759 -0.112525 94.251949 612.526882 -0.000000 0.340617 0.158449 -0.360704
5.025000 -62.118616 15.681427 -0.000000 0.219326 0.471218 -0.112539 113.485087 561.470731 -0.000000 0.331906 0.153545 -0.360540
5.030000 -64.699628 32.188055 -0.000000 0.227908 0.476217 -0.112608 131.279033 510.514314 -0.000000 0.322745 0.149323 -0.360256
5.035000 -65.730202 49.551645 -0.000000 0.236280 0.480640 -0.112543 147.181964 461.367991 -0.000000 0.312855 0.145753 -0.360183
5.040000 -65.200815 67.588752 -0.000000 0.244505 0.484386 -0.112400 160.738297 415.585336 -0.000000 0.302599 0.142966 -0.359959
5.045000 -63.208953 86.594900 -0.000000 0.252783 0.487631 -0.112254 172.048860 374.105788 -0.000000 0.292156 0.140671 -0.359705
5.050000 -60.178111 107.107056 -0.000000 0.260832 0.490205 -0.112219 180.382363 337.644254 -0.000000 0.281856 0.139038 -0.359371
5.055000 -56.593899 129.983248 -0.000000 0.268416 0.491975 -0.111815 185.723008 306.019496 -0.000000 0.271752 0.138069 -0.359002
5.060000 -52.701547 156.230873 -0.000000 0.276086 0.493024 -0.111512 188.971926 277.875854 -0.000000 0.261883 0.137622 -0.358552
5.065000 -49.083387 186.518000 -0.000000 0.283403 0.493183 -0.110843 190.421758 251.756874 -0.000000 0.252096 0.137774 -0.358242
5.070000 -46.358784 221.175305 -0.000000 0.290338 0.492337 -0.110234 190.576241 225.944212 -0.000000 0.242493 0.138640 -0.357957
5.075000 -44.912751 260.083009 -0.000000 0.297127 0.491088 -0.109552 189.999202 198.703584 -0.000000 0.232909 0.140342 -0.357369
5.080000 -45.374095 302.472732 -0.000000 0.303778 0.488951 -0.108852 188.565845 169.042892 -0.000000 0.223515 0.142683 -0.357151
5.085000 -48.232619 346.998677 -0.000000 0.310495 0.486146 -0.108364 185.906398 136.551784 -0.000000 0.214562 0.145673 -0.356885
5.090000 -53.587844 391.856224 -0.000000 0.317463 0.482634 -0.108051 181.571591 101.373165 -0.000000 0.206100 0.149150 -0.356356
5.095000 -61.389522 434.990685 -0.000000 0.324617 0.478121 -0.107886 175.080720 64.240700 -0.000000 0.198206 0.153171 -0.356080
5.100000 -72.070092 474.328946 -0.000000 0.331417 0.472874 -0.107268 166.101567 26.479823 -0.000000 0.190757 0.157611 -0.355869
5.105000 -84.494847 508.375308 -0.000000 0.338627 0.467134 -0.107167 154.723388 -10.915544 -0.000000 0.183798 0.162608 -0.355740
5.110000 -98.671101 536.016305 -0.000000 0.345797 0.460665 -0.107043 141.120434 -46.366439 -0.000000 0.177302 0.168083 -0.355601
5.115000 -113.409800 556.946735 -0.000000 0.353375 0.453615 -0.107388 125.621088 -78.623171 -0.000000 0.171189 0.174016 -0.355480
5.120000 -129.859861 570.954204 -0.000000 0.360210 0.446133 -0.106975 109.043010 -105.999660 -0.000000 0.165494 0.180422 -0.355335
5.125000 -146.652248 578.834853 -0.000000 0.366834 0.438259 -0.106821 92.067634 -127.702038 -0.000000 0.160179 0.187222 -0.355056
5.130000 -162.702136 581.879781 -0.000000 0.373468 0.429884 -0.106786 75.387878 -143.225430 -0.000000 0.155202 0.194419 -0.354838
5.135000 -178.129131 581.476464 -0.000000 0.379735 0.421129 -0.106289 59.959022 -152.408949 -0.000000 0.150591 0.202124 -0.354901
5.140000 -192.718531 579.310941 -0.000000 0.385734 0.411980 -0.106625 46.575335 -155.703270 -0.000000 0.146365 0.210154 -0.354788
5.145000 -206.228747 577.086890 -0.000000 0.391298 0.402518 -0.106737 35.813996 -154.011040 -0.000000 0.142466 0.218665 -0.354693
5.150000 -218.677673 576.209972 -0.000000 0.396302 0.392767 -0.106776 28.030119 -148.492877 -0.000000 0.138918 0.227541 -0.354601
5.155000 -229.312643 578.049710 -0.000000 0.400785 0.382624 -0.106935 23.056769 -140.410682 -0.000000 0.135785 0.236887 -0.354631
5.160000 -238.129949 583.315473 -0.000000 0.404717 0.372199 -0.106881 20.643398 -130.876336 -0.000000 0.133115 0.246546 -0.354629
5.165000 -244.931993 592.370319 -0.000000 0.408077 0.361611 -0.106938 20.274852 -120.790452 -0.000000 0.130919 0.256458 -0.354709
5.170000 -249.194660 605.354585 -0.000000 0.410750 0.350790 -0.106952 21.254443 -110.790609 -0.000000 0.129292 0.266623 -0.354671
5.175000 -250.906297 621.948684 -0.000000 0.412808 0.339945 -0.107035 22.987893 -101.264105 -0.000000 0.128229 0.276964 -0.354633
5.180000 -249.648958 641.833879 -0.000000 0.414124 0.329012 -0.107074 24.878419 -92.469757 -0.000000 0.127717 0.287457 -0.354658
5.185000 -244.607740 664.683187 -0.000000 0.414836 0.317964 -0.107155 26.390011 -84.603306 -0.000000 0.127767 0.298243 -0.354587
5.190000 -236.463119 689.426681 -0.000000 0.415075 0.306988 -0.107412 27.315191 -77.733016 -0.000000 0.128329 0.309090 -0.354455
5.195000 -224.734464 715.287461 -0.000000 0.414521 0.296025 -0.107346 27.418659 -71.902336 -0.000000 0.129426 0.320064 -0.354381
5.200000 -209.319031 741.296148 -0.000000 0.413308 0.285059 -0.107153 26.621407 -67.088525 -0.000000 0.131026 0.331148 -0.354257
5.205000 -191.371467 766.226123 -0.000000 0.411335 0.274382 -0.107157 25.017889 -63.204508 -0.000000 0.133166 0.342179 -0.353986
5.210000 -170.705486 789.368821 -0.000000 0.408985 0.263764 -0.106581 22.615240 -60.200871 -0.000000 0.135737 0.353192 -0.353698
5.215000 -147.257117 810.018484 -0.000000 0.405477 0.253381 -0.106869 19.461817 -57.981660 -0.000000 0.138928 0.364126 -0.353299
5.220000 -122.140047 827.338837 -0.000000 0.401842 0.243274 -0.106774 15.692389 -56.362828 -0.000000 0.142527 0.375124 -0.352926
5.225000 -95.168278 840.857069 -0.000000 0.397608 0.233566 -0.106689 11.325013 -55.113696 -0.000000 0.146622 0.386298 -0.352347
5.230000 -68.042203 850.011743 -0.000000 0.392728 0.224025 -0.106631 6.478655 -53.878006 -0.000000 0.151250 0.396796 -0.351673
5.235000 -41.511800 854.618107 -0.000000 0.387443 0.215046 -0.106414 1.196648 -52.247080 -0.000000 0.156548 0.406832 -0.351078
5.240000 -15.734934 854.672782 -0.000000 0.381565 0.206419 -0.106211 -4.510624 -49.774212 -0.000000 0.162120 0.416398 -0.350253
5.245000 9.037636 850.214498 -0.000000 0.375296 0.198013 -0.106018 -10.607539 -45.997200 -0.000000 0.167874 0.425674 -0.350099
5.250000 32.573262 841.275678 -0.000000 0.368662 0.190187 -0.105796 -17.021575 -40.449299 -0.000000 0.174412 0.434343 -0.349910
5.255000 54.679175 827.813446 -0.000000 0.361641 0.182852 -0.105632 -23.621850 -32.670296 -0.000000 0.181355 0.442531 -0.349767
5.260000 75.428252 809.659755 -0.000000 0.354134 0.175895 -0.105430 -30.202724 -22.229419 -0.000000 0.188658 0.449967 -0.349953
5.265000 93.934562 786.695680 -0.000000 0.346380 0.169739 -0.105187 -36.445902 -8.817352 -0.000000 0.196169 0.456794 -0.350008
5.270000 111.184400 758.687172 -0.000000 0.338305 0.164086 -0.105009 -41.994879 7.803925 -0.000000 0.204035 0.462896 -0.350207
5.275000 127.475501 725.622470 -0.000000 0.329937 0.159010 -0.104897 -46.359948 27.658780 -0.000000 0.212267 0.468570 -0.350471
5.280000 141.856819 688.060291 -0.000000 0.321353 0.154622 -0.104889 -49.059564 50.456603 -0.000000 0.220600 0.473491 -0.350677
5.285000 154.491107 646.844485 -0.000000 0.312392 0.151001 -0.104851 -49.679246 75.760766 -0.000000 0.228973 0.477185 -0.351203
5.290000 165.698563 603.142591 -0.000000 0.303035 0.147932 -0.104767 -47.948402 103.083986 -0.000000 0.237006 0.481097 -0.351751
5.295000 175.443417 558.370785 -0.000000 0.293239 0.145534 -0.104521 -43.918667 132.062019 -0.000000 0.244807 0.484495 -0.352285
5.300000 183.213444 514.015122 -0.000000 0.283442 0.143889 -0.104656 -38.165332 162.552524 -0.000000 0.252373 0.487309 -0.352584
5.305000 189.678322 470.812669 -0.000000 0.273477 0.142853 -0.104539 -31.332016 194.656982 -0.000000 0.259787 0.489442 -0.352867
5.310000 194.882148 429.133476 -0.000000 0.263477 0.142338 -0.104512 -24.457153 228.359005 -0.000000 0.267075 0.490731 -0.353569
5.315000 198.971948 388.712160 -0.000000 0.253551 0.142684 -0.104542 -18.694903 263.399577 -0.000000 0.274294 0.491182 -0.354246
5.320000 201.931972 348.829342 -0.000000 0.243754 0.143353 -0.104559 -15.296865 299.185872 -0.000000 0.281382 0.491010 -0.354862
5.325000 203.813405 308.357917 -0.000000 0.234272 0.144491 -0.104646 -15.334142 334.846031 -0.000000 0.288471 0.489955 -0.355546
5.330000 204.790618 265.882471 -0.000000 0.225051 0.146511 -0.104474 -19.329602 369.341845 -0.000000 0.295656 0.487872 -0.356472
5.335000 204.535212 220.345043 -0.000000 0.216205 0.149277 -0.104582 -27.710372 401.562445 -0.000000 0.302990 0.484902 -0.357437
5.340000 202.533216 171.154226 -0.000000 0.207739 0.152617 -0.104828 -40.520506 430.434542 -0.000000 0.310479 0.481346 -0.358323
5.345000 198.160383 118.356084 -0.000000 0.199679 0.156575 -0.105014 -57.349475 455.044254 -0.000000 0.318007 0.476959 -0.359165
5.350000 190.723681 62.822190 -0.000000 0.192237 0.161428 -0.105186 -77.555559 474.789156 -0.000000 0.325675 0.472111 -0.359928
5.355000 179.672399 6.300969 -0.000000 0.185288 0.166509 -0.105335 -100.587068 489.454151 -0.000000 0.333253 0.466652 -0.360583
5.360000 164.888422 -48.959564 -0.000000 0.178864 0.172026 -0.105710 -125.630893 499.278279 -0.000000 0.340651 0.460772 -0.361156
5.365000 146.642968 -100.553615 -0.000000 0.173085 0.178092 -0.105812 -151.447196 505.033595 -0.000000 0.348048 0.454295 -0.361516
5.370000 125.706655 -145.958051 -0.000000 0.167804 0.184541 -0.105887 -177.422433 507.749448 -0.000000 0.355316 0.447388 -0.361781
5.375000 103.146629 -183.240595 -0.000000 0.162731 0.191287 -0.105843 -202.569670 508.894870 -0.000000 0.362394 0.439915 -0.361865
5.380000 80.348406 -211.095087 -0.000000 0.158047 0.198333 -0.105881 -226.390211 509.943140 -0.000000 0.369466 0.431932 -0.361744
5.385000 58.796083 -229.078096 -0.000000 0.153615 0.205839 -0.106037 -248.571724 512.224145 -0.000000 0.376078 0.423467 -0.361703
